solid OpenSCAD_Model
  facet normal 0 0 -1
    outer loop
      vertex -0.0894995 -0.3361 -0.0999994
      vertex 0.5 -0.5 -0.0999994
      vertex -0.0894995 -0.336499 -0.0999994
    endloop
  endfacet
  facet normal 0 0 -1
    outer loop
      vertex -0.5 -0.5 -0.0999994
      vertex -0.0894995 -0.336499 -0.0999994
      vertex 0.5 -0.5 -0.0999994
    endloop
  endfacet
  facet normal 0 0 -1
    outer loop
      vertex -0.107349 -0.325 -0.0999994
      vertex -0.0915499 -0.33575 -0.0999994
      vertex -0.0909491 -0.336499 -0.0999994
    endloop
  endfacet
  facet normal 0 0 -1
    outer loop
      vertex -0.0915499 -0.33575 -0.0999994
      vertex -0.107349 -0.325 -0.0999994
      vertex -0.106 -0.325 -0.0999994
    endloop
  endfacet
  facet normal 0 0 -1
    outer loop
      vertex -0.1085 -0.323899 -0.0999994
      vertex -0.118999 -0.316 -0.0999994
      vertex -0.1085 -0.3235 -0.0999994
    endloop
  endfacet
  facet normal 0 0 -1
    outer loop
      vertex -0.12035 -0.316 -0.0999994
      vertex -0.1085 -0.323899 -0.0999994
      vertex -0.107349 -0.325 -0.0999994
    endloop
  endfacet
  facet normal 0 0 -1
    outer loop
      vertex -0.1085 -0.323899 -0.0999994
      vertex -0.12035 -0.316 -0.0999994
      vertex -0.118999 -0.316 -0.0999994
    endloop
  endfacet
  facet normal 0 0 -1
    outer loop
      vertex -0.5 -0.5 -0.0999994
      vertex -0.107349 -0.325 -0.0999994
      vertex -0.0909491 -0.336499 -0.0999994
    endloop
  endfacet
  facet normal 0 0 -1
    outer loop
      vertex -0.121499 -0.314899 -0.0999994
      vertex -0.140499 -0.30005 -0.0999994
      vertex -0.121499 -0.3145 -0.0999994
    endloop
  endfacet
  facet normal 0 0 -1
    outer loop
      vertex -0.141549 -0.29985 -0.0999994
      vertex -0.121499 -0.314899 -0.0999994
      vertex -0.12035 -0.316 -0.0999994
    endloop
  endfacet
  facet normal 0 0 -1
    outer loop
      vertex -0.121499 -0.314899 -0.0999994
      vertex -0.141549 -0.29985 -0.0999994
      vertex -0.140499 -0.30005 -0.0999994
    endloop
  endfacet
  facet normal -0 0 -1
    outer loop
      vertex -0.141549 -0.29985 -0.0999994
      vertex -0.5 -0.5 -0.0999994
      vertex -0.1423 -0.29875 -0.0999994
    endloop
  endfacet
  facet normal -0 0 -1
    outer loop
      vertex -0.12035 -0.316 -0.0999994
      vertex -0.5 -0.5 -0.0999994
      vertex -0.141549 -0.29985 -0.0999994
    endloop
  endfacet
  facet normal -0 0 -1
    outer loop
      vertex -0.107349 -0.325 -0.0999994
      vertex -0.5 -0.5 -0.0999994
      vertex -0.12035 -0.316 -0.0999994
    endloop
  endfacet
  facet normal -0 0 -1
    outer loop
      vertex -0.0894995 -0.336499 -0.0999994
      vertex -0.5 -0.5 -0.0999994
      vertex -0.0909491 -0.336499 -0.0999994
    endloop
  endfacet
  facet normal 0 0 -1
    outer loop
      vertex 0.5 -0.5 -0.0999994
      vertex -0.0894995 -0.3361 -0.0999994
      vertex 0.5 0.5 -0.0999994
    endloop
  endfacet
  facet normal 0 0 -1
    outer loop
      vertex -0.0909491 -0.33525 -0.0999994
      vertex -0.0894995 -0.3361 -0.0999994
      vertex -0.0902491 -0.335699 -0.0999994
    endloop
  endfacet
  facet normal 0 0 -1
    outer loop
      vertex -0.0894995 -0.3361 -0.0999994
      vertex -0.0909491 -0.33525 -0.0999994
      vertex -0.107349 -0.3235 -0.0999994
    endloop
  endfacet
  facet normal 0 0 -1
    outer loop
      vertex -0.106 -0.32475 -0.0999994
      vertex -0.0909491 -0.33525 -0.0999994
      vertex -0.0911999 -0.33525 -0.0999994
    endloop
  endfacet
  facet normal 0 0 -1
    outer loop
      vertex -0.106 -0.325 -0.0999994
      vertex -0.0911999 -0.33525 -0.0999994
      vertex -0.0915499 -0.33575 -0.0999994
    endloop
  endfacet
  facet normal 0 0 -1
    outer loop
      vertex -0.106 -0.32475 -0.0999994
      vertex -0.0911999 -0.33525 -0.0999994
      vertex -0.106 -0.325 -0.0999994
    endloop
  endfacet
  facet normal 0 0 -1
    outer loop
      vertex -0.0909491 -0.33525 -0.0999994
      vertex -0.106 -0.32475 -0.0999994
      vertex -0.1067 -0.3241 -0.0999994
    endloop
  endfacet
  facet normal 0 0 -1
    outer loop
      vertex -0.0909491 -0.33525 -0.0999994
      vertex -0.1067 -0.3241 -0.0999994
      vertex -0.107349 -0.3235 -0.0999994
    endloop
  endfacet
  facet normal 0 0 -1
    outer loop
      vertex -0.0894995 -0.3361 -0.0999994
      vertex -0.107349 -0.3235 -0.0999994
      vertex 0.5 0.5 -0.0999994
    endloop
  endfacet
  facet normal 0 0 -1
    outer loop
      vertex -0.118999 -0.315749 -0.0999994
      vertex -0.107349 -0.3235 -0.0999994
      vertex -0.1085 -0.3235 -0.0999994
    endloop
  endfacet
  facet normal 0 0 -1
    outer loop
      vertex -0.118999 -0.315749 -0.0999994
      vertex -0.1085 -0.3235 -0.0999994
      vertex -0.118999 -0.316 -0.0999994
    endloop
  endfacet
  facet normal 0 0 -1
    outer loop
      vertex -0.107349 -0.3235 -0.0999994
      vertex -0.118999 -0.315749 -0.0999994
      vertex -0.119699 -0.3151 -0.0999994
    endloop
  endfacet
  facet normal 0 0 -1
    outer loop
      vertex -0.107349 -0.3235 -0.0999994
      vertex -0.119699 -0.3151 -0.0999994
      vertex -0.12035 -0.3145 -0.0999994
    endloop
  endfacet
  facet normal 0 0 -1
    outer loop
      vertex -0.107349 -0.3235 -0.0999994
      vertex -0.12035 -0.3145 -0.0999994
      vertex 0.5 0.5 -0.0999994
    endloop
  endfacet
  facet normal 0 0 -1
    outer loop
      vertex -0.140499 -0.2996 -0.0999994
      vertex -0.12035 -0.3145 -0.0999994
      vertex -0.121499 -0.3145 -0.0999994
    endloop
  endfacet
  facet normal 0 0 -1
    outer loop
      vertex -0.140499 -0.2996 -0.0999994
      vertex -0.121499 -0.3145 -0.0999994
      vertex -0.140499 -0.30005 -0.0999994
    endloop
  endfacet
  facet normal 0 0 -1
    outer loop
      vertex -0.12035 -0.3145 -0.0999994
      vertex -0.140499 -0.2996 -0.0999994
      vertex 0.5 0.5 -0.0999994
    endloop
  endfacet
  facet normal 0 0 -1
    outer loop
      vertex -0.14195 -0.29875 -0.0999994
      vertex -0.140499 -0.2996 -0.0999994
      vertex -0.14125 -0.299199 -0.0999994
    endloop
  endfacet
  facet normal 0 0 -1
    outer loop
      vertex -0.140499 -0.2996 -0.0999994
      vertex -0.14195 -0.29875 -0.0999994
      vertex 0.5 0.5 -0.0999994
    endloop
  endfacet
  facet normal 0 0 -1
    outer loop
      vertex -0.5 0.5 -0.0999994
      vertex -0.14195 -0.29875 -0.0999994
      vertex -0.1423 -0.29875 -0.0999994
    endloop
  endfacet
  facet normal 0 0 -1
    outer loop
      vertex -0.5 0.5 -0.0999994
      vertex -0.1423 -0.29875 -0.0999994
      vertex -0.5 -0.5 -0.0999994
    endloop
  endfacet
  facet normal 0 0 -1
    outer loop
      vertex -0.14195 -0.29875 -0.0999994
      vertex -0.5 0.5 -0.0999994
      vertex 0.5 0.5 -0.0999994
    endloop
  endfacet
  facet normal 0 0 1
    outer loop
      vertex 0.5 0.5 0.0999994
      vertex -0.0894995 -0.3361 0.0999994
      vertex 0.5 -0.5 0.0999994
    endloop
  endfacet
  facet normal -0 0 1
    outer loop
      vertex -0.107349 -0.3235 0.0999994
      vertex -0.0894995 -0.3361 0.0999994
      vertex 0.5 0.5 0.0999994
    endloop
  endfacet
  facet normal -0 -0 1
    outer loop
      vertex -0.0909491 -0.33525 0.0999994
      vertex -0.0894995 -0.3361 0.0999994
      vertex -0.107349 -0.3235 0.0999994
    endloop
  endfacet
  facet normal 0 0 1
    outer loop
      vertex -0.0894995 -0.3361 0.0999994
      vertex -0.0909491 -0.33525 0.0999994
      vertex -0.0902491 -0.335699 0.0999994
    endloop
  endfacet
  facet normal -0 0 1
    outer loop
      vertex -0.106 -0.325 0.0999994
      vertex -0.0911999 -0.33525 0.0999994
      vertex -0.106 -0.32475 0.0999994
    endloop
  endfacet
  facet normal -0 -0 1
    outer loop
      vertex -0.1067 -0.3241 0.0999994
      vertex -0.0909491 -0.33525 0.0999994
      vertex -0.107349 -0.3235 0.0999994
    endloop
  endfacet
  facet normal 0 0 1
    outer loop
      vertex -0.0909491 -0.33525 0.0999994
      vertex -0.106 -0.32475 0.0999994
      vertex -0.0911999 -0.33525 0.0999994
    endloop
  endfacet
  facet normal -0 -0 1
    outer loop
      vertex -0.106 -0.32475 0.0999994
      vertex -0.0909491 -0.33525 0.0999994
      vertex -0.1067 -0.3241 0.0999994
    endloop
  endfacet
  facet normal -0 0 1
    outer loop
      vertex -0.12035 -0.3145 0.0999994
      vertex -0.107349 -0.3235 0.0999994
      vertex 0.5 0.5 0.0999994
    endloop
  endfacet
  facet normal -0 0 1
    outer loop
      vertex -0.118999 -0.316 0.0999994
      vertex -0.1085 -0.3235 0.0999994
      vertex -0.118999 -0.315749 0.0999994
    endloop
  endfacet
  facet normal -0 -0 1
    outer loop
      vertex -0.119699 -0.3151 0.0999994
      vertex -0.107349 -0.3235 0.0999994
      vertex -0.12035 -0.3145 0.0999994
    endloop
  endfacet
  facet normal 0 0 1
    outer loop
      vertex -0.107349 -0.3235 0.0999994
      vertex -0.118999 -0.315749 0.0999994
      vertex -0.1085 -0.3235 0.0999994
    endloop
  endfacet
  facet normal -0 -0 1
    outer loop
      vertex -0.118999 -0.315749 0.0999994
      vertex -0.107349 -0.3235 0.0999994
      vertex -0.119699 -0.3151 0.0999994
    endloop
  endfacet
  facet normal -0 0 1
    outer loop
      vertex -0.140499 -0.2996 0.0999994
      vertex -0.12035 -0.3145 0.0999994
      vertex 0.5 0.5 0.0999994
    endloop
  endfacet
  facet normal -0 0 1
    outer loop
      vertex -0.140499 -0.30005 0.0999994
      vertex -0.121499 -0.3145 0.0999994
      vertex -0.140499 -0.2996 0.0999994
    endloop
  endfacet
  facet normal 0 0 1
    outer loop
      vertex -0.12035 -0.3145 0.0999994
      vertex -0.140499 -0.2996 0.0999994
      vertex -0.121499 -0.3145 0.0999994
    endloop
  endfacet
  facet normal -0 0 1
    outer loop
      vertex -0.14195 -0.29875 0.0999994
      vertex -0.140499 -0.2996 0.0999994
      vertex 0.5 0.5 0.0999994
    endloop
  endfacet
  facet normal 0 0 1
    outer loop
      vertex -0.140499 -0.2996 0.0999994
      vertex -0.14195 -0.29875 0.0999994
      vertex -0.14125 -0.299199 0.0999994
    endloop
  endfacet
  facet normal -0 0 1
    outer loop
      vertex -0.5 0.5 0.0999994
      vertex -0.14195 -0.29875 0.0999994
      vertex 0.5 0.5 0.0999994
    endloop
  endfacet
  facet normal 0 0 1
    outer loop
      vertex -0.14195 -0.29875 0.0999994
      vertex -0.5 0.5 0.0999994
      vertex -0.1423 -0.29875 0.0999994
    endloop
  endfacet
  facet normal -0 0 1
    outer loop
      vertex -0.0894995 -0.336499 0.0999994
      vertex 0.5 -0.5 0.0999994
      vertex -0.0894995 -0.3361 0.0999994
    endloop
  endfacet
  facet normal 0 0 1
    outer loop
      vertex -0.5 -0.5 0.0999994
      vertex -0.0894995 -0.336499 0.0999994
      vertex -0.0909491 -0.336499 0.0999994
    endloop
  endfacet
  facet normal 0 0 1
    outer loop
      vertex -0.0911999 -0.33525 0.0999994
      vertex -0.106 -0.325 0.0999994
      vertex -0.0915499 -0.33575 0.0999994
    endloop
  endfacet
  facet normal -0 0 1
    outer loop
      vertex -0.107349 -0.325 0.0999994
      vertex -0.0915499 -0.33575 0.0999994
      vertex -0.106 -0.325 0.0999994
    endloop
  endfacet
  facet normal 0 0 1
    outer loop
      vertex -0.0915499 -0.33575 0.0999994
      vertex -0.107349 -0.325 0.0999994
      vertex -0.0909491 -0.336499 0.0999994
    endloop
  endfacet
  facet normal 0 0 1
    outer loop
      vertex -0.1085 -0.3235 0.0999994
      vertex -0.118999 -0.316 0.0999994
      vertex -0.1085 -0.323899 0.0999994
    endloop
  endfacet
  facet normal -0 0 1
    outer loop
      vertex -0.12035 -0.316 0.0999994
      vertex -0.1085 -0.323899 0.0999994
      vertex -0.118999 -0.316 0.0999994
    endloop
  endfacet
  facet normal 0 0 1
    outer loop
      vertex -0.1085 -0.323899 0.0999994
      vertex -0.12035 -0.316 0.0999994
      vertex -0.107349 -0.325 0.0999994
    endloop
  endfacet
  facet normal 0 0 1
    outer loop
      vertex -0.5 -0.5 0.0999994
      vertex -0.107349 -0.325 0.0999994
      vertex -0.12035 -0.316 0.0999994
    endloop
  endfacet
  facet normal 0 0 1
    outer loop
      vertex -0.121499 -0.3145 0.0999994
      vertex -0.140499 -0.30005 0.0999994
      vertex -0.121499 -0.314899 0.0999994
    endloop
  endfacet
  facet normal 0 0 1
    outer loop
      vertex -0.141549 -0.29985 0.0999994
      vertex -0.121499 -0.314899 0.0999994
      vertex -0.140499 -0.30005 0.0999994
    endloop
  endfacet
  facet normal 0 0 1
    outer loop
      vertex -0.121499 -0.314899 0.0999994
      vertex -0.141549 -0.29985 0.0999994
      vertex -0.12035 -0.316 0.0999994
    endloop
  endfacet
  facet normal 0 0 1
    outer loop
      vertex -0.0894995 -0.336499 0.0999994
      vertex -0.5 -0.5 0.0999994
      vertex 0.5 -0.5 0.0999994
    endloop
  endfacet
  facet normal 0 0 1
    outer loop
      vertex -0.107349 -0.325 0.0999994
      vertex -0.5 -0.5 0.0999994
      vertex -0.0909491 -0.336499 0.0999994
    endloop
  endfacet
  facet normal 0 0 1
    outer loop
      vertex -0.141549 -0.29985 0.0999994
      vertex -0.5 -0.5 0.0999994
      vertex -0.12035 -0.316 0.0999994
    endloop
  endfacet
  facet normal 0 0 1
    outer loop
      vertex -0.1423 -0.29875 0.0999994
      vertex -0.5 -0.5 0.0999994
      vertex -0.141549 -0.29985 0.0999994
    endloop
  endfacet
  facet normal 0 0 1
    outer loop
      vertex -0.5 -0.5 0.0999994
      vertex -0.1423 -0.29875 0.0999994
      vertex -0.5 0.5 0.0999994
    endloop
  endfacet
  facet normal 0 1 -0
    outer loop
      vertex 0.5 0.5 -0.0999994
      vertex -0.5 0.5 0.0999994
      vertex 0.5 0.5 0.0999994
    endloop
  endfacet
  facet normal 0 1 0
    outer loop
      vertex -0.5 0.5 0.0999994
      vertex 0.5 0.5 -0.0999994
      vertex -0.5 0.5 -0.0999994
    endloop
  endfacet
  facet normal -1 0 0
    outer loop
      vertex -0.5 -0.5 -0.0999994
      vertex -0.5 0.5 0.0999994
      vertex -0.5 0.5 -0.0999994
    endloop
  endfacet
  facet normal -1 -0 0
    outer loop
      vertex -0.5 0.5 0.0999994
      vertex -0.5 -0.5 -0.0999994
      vertex -0.5 -0.5 0.0999994
    endloop
  endfacet
  facet normal 0 -1 0
    outer loop
      vertex -0.5 -0.5 -0.0999994
      vertex 0.5 -0.5 0.0999994
      vertex -0.5 -0.5 0.0999994
    endloop
  endfacet
  facet normal 0 -1 -0
    outer loop
      vertex 0.5 -0.5 0.0999994
      vertex -0.5 -0.5 -0.0999994
      vertex 0.5 -0.5 -0.0999994
    endloop
  endfacet
  facet normal 1 -0 0
    outer loop
      vertex 0.5 -0.5 0.0999994
      vertex 0.5 0.5 -0.0999994
      vertex 0.5 0.5 0.0999994
    endloop
  endfacet
  facet normal 1 0 0
    outer loop
      vertex 0.5 0.5 -0.0999994
      vertex 0.5 -0.5 0.0999994
      vertex 0.5 -0.5 -0.0999994
    endloop
  endfacet
  facet normal 0.825939 0.563759 0
    outer loop
      vertex -0.141549 -0.29985 0.0999994
      vertex -0.1423 -0.29875 -0.0999994
      vertex -0.1423 -0.29875 0.0999994
    endloop
  endfacet
  facet normal 0.825939 0.563759 0
    outer loop
      vertex -0.1423 -0.29875 -0.0999994
      vertex -0.141549 -0.29985 0.0999994
      vertex -0.141549 -0.29985 -0.0999994
    endloop
  endfacet
  facet normal 0 -1 0
    outer loop
      vertex -0.1423 -0.29875 -0.0999994
      vertex -0.14195 -0.29875 0.0999994
      vertex -0.1423 -0.29875 0.0999994
    endloop
  endfacet
  facet normal 0 -1 -0
    outer loop
      vertex -0.14195 -0.29875 0.0999994
      vertex -0.1423 -0.29875 -0.0999994
      vertex -0.14195 -0.29875 -0.0999994
    endloop
  endfacet
  facet normal -0.540062 -0.841625 0
    outer loop
      vertex -0.14195 -0.29875 -0.0999994
      vertex -0.14125 -0.299199 0.0999994
      vertex -0.14195 -0.29875 0.0999994
    endloop
  endfacet
  facet normal -0.540062 -0.841625 -0
    outer loop
      vertex -0.14125 -0.299199 0.0999994
      vertex -0.14195 -0.29875 -0.0999994
      vertex -0.14125 -0.299199 -0.0999994
    endloop
  endfacet
  facet normal -0.470821 -0.882229 0
    outer loop
      vertex -0.14125 -0.299199 -0.0999994
      vertex -0.140499 -0.2996 0.0999994
      vertex -0.14125 -0.299199 0.0999994
    endloop
  endfacet
  facet normal -0.470821 -0.882229 -0
    outer loop
      vertex -0.140499 -0.2996 0.0999994
      vertex -0.14125 -0.299199 -0.0999994
      vertex -0.140499 -0.2996 -0.0999994
    endloop
  endfacet
  facet normal -1 0 0
    outer loop
      vertex -0.140499 -0.30005 -0.0999994
      vertex -0.140499 -0.2996 0.0999994
      vertex -0.140499 -0.2996 -0.0999994
    endloop
  endfacet
  facet normal -1 -0 0
    outer loop
      vertex -0.140499 -0.2996 0.0999994
      vertex -0.140499 -0.30005 -0.0999994
      vertex -0.140499 -0.30005 0.0999994
    endloop
  endfacet
  facet normal 0.187358 0.982292 -0
    outer loop
      vertex -0.140499 -0.30005 -0.0999994
      vertex -0.141549 -0.29985 0.0999994
      vertex -0.140499 -0.30005 0.0999994
    endloop
  endfacet
  facet normal 0.187358 0.982292 0
    outer loop
      vertex -0.141549 -0.29985 0.0999994
      vertex -0.140499 -0.30005 -0.0999994
      vertex -0.141549 -0.29985 -0.0999994
    endloop
  endfacet
  facet normal 0.691658 0.722225 -0
    outer loop
      vertex -0.12035 -0.316 -0.0999994
      vertex -0.121499 -0.314899 0.0999994
      vertex -0.12035 -0.316 0.0999994
    endloop
  endfacet
  facet normal 0.691658 0.722225 0
    outer loop
      vertex -0.121499 -0.314899 0.0999994
      vertex -0.12035 -0.316 -0.0999994
      vertex -0.121499 -0.314899 -0.0999994
    endloop
  endfacet
  facet normal 1 -0 0
    outer loop
      vertex -0.121499 -0.314899 0.0999994
      vertex -0.121499 -0.3145 -0.0999994
      vertex -0.121499 -0.3145 0.0999994
    endloop
  endfacet
  facet normal 1 0 0
    outer loop
      vertex -0.121499 -0.3145 -0.0999994
      vertex -0.121499 -0.314899 0.0999994
      vertex -0.121499 -0.314899 -0.0999994
    endloop
  endfacet
  facet normal 0 -1 0
    outer loop
      vertex -0.121499 -0.3145 -0.0999994
      vertex -0.12035 -0.3145 0.0999994
      vertex -0.121499 -0.3145 0.0999994
    endloop
  endfacet
  facet normal 0 -1 -0
    outer loop
      vertex -0.12035 -0.3145 0.0999994
      vertex -0.121499 -0.3145 -0.0999994
      vertex -0.12035 -0.3145 -0.0999994
    endloop
  endfacet
  facet normal -0.677967 -0.735093 0
    outer loop
      vertex -0.12035 -0.3145 -0.0999994
      vertex -0.119699 -0.3151 0.0999994
      vertex -0.12035 -0.3145 0.0999994
    endloop
  endfacet
  facet normal -0.677967 -0.735093 -0
    outer loop
      vertex -0.119699 -0.3151 0.0999994
      vertex -0.12035 -0.3145 -0.0999994
      vertex -0.119699 -0.3151 -0.0999994
    endloop
  endfacet
  facet normal -0.680145 -0.733078 0
    outer loop
      vertex -0.119699 -0.3151 -0.0999994
      vertex -0.118999 -0.315749 0.0999994
      vertex -0.119699 -0.3151 0.0999994
    endloop
  endfacet
  facet normal -0.680145 -0.733078 -0
    outer loop
      vertex -0.118999 -0.315749 0.0999994
      vertex -0.119699 -0.3151 -0.0999994
      vertex -0.118999 -0.315749 -0.0999994
    endloop
  endfacet
  facet normal -1 0 0
    outer loop
      vertex -0.118999 -0.316 -0.0999994
      vertex -0.118999 -0.315749 0.0999994
      vertex -0.118999 -0.315749 -0.0999994
    endloop
  endfacet
  facet normal -1 -0 0
    outer loop
      vertex -0.118999 -0.315749 0.0999994
      vertex -0.118999 -0.316 -0.0999994
      vertex -0.118999 -0.316 0.0999994
    endloop
  endfacet
  facet normal 0 1 -0
    outer loop
      vertex -0.118999 -0.316 -0.0999994
      vertex -0.12035 -0.316 0.0999994
      vertex -0.118999 -0.316 0.0999994
    endloop
  endfacet
  facet normal 0 1 0
    outer loop
      vertex -0.12035 -0.316 0.0999994
      vertex -0.118999 -0.316 -0.0999994
      vertex -0.12035 -0.316 -0.0999994
    endloop
  endfacet
  facet normal 0.691359 0.722512 -0
    outer loop
      vertex -0.107349 -0.325 -0.0999994
      vertex -0.1085 -0.323899 0.0999994
      vertex -0.107349 -0.325 0.0999994
    endloop
  endfacet
  facet normal 0.691359 0.722512 0
    outer loop
      vertex -0.1085 -0.323899 0.0999994
      vertex -0.107349 -0.325 -0.0999994
      vertex -0.1085 -0.323899 -0.0999994
    endloop
  endfacet
  facet normal 1 -0 0
    outer loop
      vertex -0.1085 -0.323899 0.0999994
      vertex -0.1085 -0.3235 -0.0999994
      vertex -0.1085 -0.3235 0.0999994
    endloop
  endfacet
  facet normal 1 0 0
    outer loop
      vertex -0.1085 -0.3235 -0.0999994
      vertex -0.1085 -0.323899 0.0999994
      vertex -0.1085 -0.323899 -0.0999994
    endloop
  endfacet
  facet normal 0 -1 0
    outer loop
      vertex -0.1085 -0.3235 -0.0999994
      vertex -0.107349 -0.3235 0.0999994
      vertex -0.1085 -0.3235 0.0999994
    endloop
  endfacet
  facet normal 0 -1 -0
    outer loop
      vertex -0.107349 -0.3235 0.0999994
      vertex -0.1085 -0.3235 -0.0999994
      vertex -0.107349 -0.3235 -0.0999994
    endloop
  endfacet
  facet normal -0.678504 -0.734597 0
    outer loop
      vertex -0.107349 -0.3235 -0.0999994
      vertex -0.1067 -0.3241 0.0999994
      vertex -0.107349 -0.3235 0.0999994
    endloop
  endfacet
  facet normal -0.678504 -0.734597 -0
    outer loop
      vertex -0.1067 -0.3241 0.0999994
      vertex -0.107349 -0.3235 -0.0999994
      vertex -0.1067 -0.3241 -0.0999994
    endloop
  endfacet
  facet normal -0.680681 -0.73258 0
    outer loop
      vertex -0.1067 -0.3241 -0.0999994
      vertex -0.106 -0.32475 0.0999994
      vertex -0.1067 -0.3241 0.0999994
    endloop
  endfacet
  facet normal -0.680681 -0.73258 -0
    outer loop
      vertex -0.106 -0.32475 0.0999994
      vertex -0.1067 -0.3241 -0.0999994
      vertex -0.106 -0.32475 -0.0999994
    endloop
  endfacet
  facet normal -1 0 0
    outer loop
      vertex -0.106 -0.325 -0.0999994
      vertex -0.106 -0.32475 0.0999994
      vertex -0.106 -0.32475 -0.0999994
    endloop
  endfacet
  facet normal -1 -0 0
    outer loop
      vertex -0.106 -0.32475 0.0999994
      vertex -0.106 -0.325 -0.0999994
      vertex -0.106 -0.325 0.0999994
    endloop
  endfacet
  facet normal 0 1 -0
    outer loop
      vertex -0.106 -0.325 -0.0999994
      vertex -0.107349 -0.325 0.0999994
      vertex -0.106 -0.325 0.0999994
    endloop
  endfacet
  facet normal 0 1 0
    outer loop
      vertex -0.107349 -0.325 0.0999994
      vertex -0.106 -0.325 -0.0999994
      vertex -0.107349 -0.325 -0.0999994
    endloop
  endfacet
  facet normal 0.780287 0.625421 0
    outer loop
      vertex -0.0909491 -0.336499 0.0999994
      vertex -0.0915499 -0.33575 -0.0999994
      vertex -0.0915499 -0.33575 0.0999994
    endloop
  endfacet
  facet normal 0.780287 0.625421 0
    outer loop
      vertex -0.0915499 -0.33575 -0.0999994
      vertex -0.0909491 -0.336499 0.0999994
      vertex -0.0909491 -0.336499 -0.0999994
    endloop
  endfacet
  facet normal 0.819085 -0.573672 0
    outer loop
      vertex -0.0915499 -0.33575 0.0999994
      vertex -0.0911999 -0.33525 -0.0999994
      vertex -0.0911999 -0.33525 0.0999994
    endloop
  endfacet
  facet normal 0.819085 -0.573672 0
    outer loop
      vertex -0.0911999 -0.33525 -0.0999994
      vertex -0.0915499 -0.33575 0.0999994
      vertex -0.0915499 -0.33575 -0.0999994
    endloop
  endfacet
  facet normal 0 -1 0
    outer loop
      vertex -0.0911999 -0.33525 -0.0999994
      vertex -0.0909491 -0.33525 0.0999994
      vertex -0.0911999 -0.33525 0.0999994
    endloop
  endfacet
  facet normal 0 -1 -0
    outer loop
      vertex -0.0909491 -0.33525 0.0999994
      vertex -0.0911999 -0.33525 -0.0999994
      vertex -0.0909491 -0.33525 -0.0999994
    endloop
  endfacet
  facet normal -0.540062 -0.841625 0
    outer loop
      vertex -0.0909491 -0.33525 -0.0999994
      vertex -0.0902491 -0.335699 0.0999994
      vertex -0.0909491 -0.33525 0.0999994
    endloop
  endfacet
  facet normal -0.540062 -0.841625 -0
    outer loop
      vertex -0.0902491 -0.335699 0.0999994
      vertex -0.0909491 -0.33525 -0.0999994
      vertex -0.0902491 -0.335699 -0.0999994
    endloop
  endfacet
  facet normal -0.471287 -0.88198 0
    outer loop
      vertex -0.0902491 -0.335699 -0.0999994
      vertex -0.0894995 -0.3361 0.0999994
      vertex -0.0902491 -0.335699 0.0999994
    endloop
  endfacet
  facet normal -0.471287 -0.88198 -0
    outer loop
      vertex -0.0894995 -0.3361 0.0999994
      vertex -0.0902491 -0.335699 -0.0999994
      vertex -0.0894995 -0.3361 -0.0999994
    endloop
  endfacet
  facet normal -1 0 0
    outer loop
      vertex -0.0894995 -0.336499 -0.0999994
      vertex -0.0894995 -0.3361 0.0999994
      vertex -0.0894995 -0.3361 -0.0999994
    endloop
  endfacet
  facet normal -1 -0 0
    outer loop
      vertex -0.0894995 -0.3361 0.0999994
      vertex -0.0894995 -0.336499 -0.0999994
      vertex -0.0894995 -0.336499 0.0999994
    endloop
  endfacet
  facet normal 0 1 -0
    outer loop
      vertex -0.0894995 -0.336499 -0.0999994
      vertex -0.0909491 -0.336499 0.0999994
      vertex -0.0894995 -0.336499 0.0999994
    endloop
  endfacet
  facet normal 0 1 0
    outer loop
      vertex -0.0909491 -0.336499 0.0999994
      vertex -0.0894995 -0.336499 -0.0999994
      vertex -0.0909491 -0.336499 -0.0999994
    endloop
  endfacet
endsolid OpenSCAD_Model
